inDegrees=no
num_controls=7
num_derivatives=13
num_iterations=150
num_multipliers=7
num_parameters=0
num_slacks=7
num_states=26
objective=0.445690
objective_accelerations=0.056905
objective_balance=0.003577
objective_effort=0.022868
objective_height=0.356772
objective_ligament=0.005568
solver_duration=2511.454037
status=Solve_Succeeded
success=true
DataType=double
version=3
OpenSimVersion=4.5
endheader
time	/jointset/ground_pelvis/pelvis_tilt/value	/jointset/ground_pelvis/pelvis_tx/value	/jointset/ground_pelvis/pelvis_ty/value	/jointset/hip_l/hip_flexion_l/value	/jointset/hip_l/hip_adduction_l/value	/jointset/hip_l/hip_rotation_l/value	/jointset/back/lumbar_extension/value	/jointset/patellofemoral_l/patellar_flexion_l/value	/jointset/knee_l/knee_flexion_l/value	/jointset/knee_l/knee_adduction_l/value	/jointset/knee_l/knee_rotation_l/value	/jointset/ankle_l/ankle_angle_l/value	/jointset/subtalar_l/subtalar_angle_l/value	/jointset/ground_pelvis/pelvis_tilt/speed	/jointset/ground_pelvis/pelvis_tx/speed	/jointset/ground_pelvis/pelvis_ty/speed	/jointset/hip_l/hip_flexion_l/speed	/jointset/hip_l/hip_adduction_l/speed	/jointset/hip_l/hip_rotation_l/speed	/jointset/back/lumbar_extension/speed	/jointset/patellofemoral_l/patellar_flexion_l/speed	/jointset/knee_l/knee_flexion_l/speed	/jointset/knee_l/knee_adduction_l/speed	/jointset/knee_l/knee_rotation_l/speed	/jointset/ankle_l/ankle_angle_l/speed	/jointset/subtalar_l/subtalar_angle_l/speed	/forceset/tau_hip_flexion_l	/forceset/tau_hip_adduction_l	/forceset/tau_hip_rotation_l	/forceset/tau_knee_flexion_l	/forceset/tau_ankle_angle_l	/forceset/tau_subtalar_angle_l	/forceset/tau_lumbar_extension	lambda_cid13_p0	lambda_cid13_p1	lambda_cid13_p2	lambda_cid13_p3	lambda_cid13_p4	lambda_cid13_p5	lambda_cid14_p0	/jointset/ground_pelvis/pelvis_tilt/accel	/jointset/ground_pelvis/pelvis_tx/accel	/jointset/ground_pelvis/pelvis_ty/accel	/jointset/hip_l/hip_flexion_l/accel	/jointset/hip_l/hip_adduction_l/accel	/jointset/hip_l/hip_rotation_l/accel	/jointset/back/lumbar_extension/accel	/jointset/patellofemoral_l/patellar_flexion_l/accel	/jointset/knee_l/knee_flexion_l/accel	/jointset/knee_l/knee_adduction_l/accel	/jointset/knee_l/knee_rotation_l/accel	/jointset/ankle_l/ankle_angle_l/accel	/jointset/subtalar_l/subtalar_angle_l/accel	gamma_cid13_p0	gamma_cid13_p1	gamma_cid13_p2	gamma_cid13_p3	gamma_cid13_p4	gamma_cid13_p5	gamma_cid14_p0
0.5	-0.3427260663522838	-0.04034050403830853	0.7607909260415842	1.099243157234584	-0.4368716973080124	-0.2241918584862639	-0.2542031344901918	0.799035473821776	0.7990354738217481	-0.131400244954139	-0.1587387806358093	0.1009522134509588	-0.03634156204374395	-0.7776586644508493	-0.2194551109344413	-0.5271715537854491	2.474244132455977	-0.207222044463915	0.7460678514658835	-0.1166908953331567	1.968225886437664	1.968225886437683	0.1184349722939546	-0.0866872970652021	0.4404380047764058	-0.01300610659409202	-0.1705875338700583	0.01422917171995193	-0.01082533814019846	-0.2170292500334195	0.06681764277462018	0.049232507671383	0.1682830062083367	-11.28927797187042	-22.62171233215576	6.944853230422281	-6.644272729713585	-522.644405712465	-67.63759563524154	-25.53638496581025	0.7930428820155582	0.608527090183249	-0.4513871685448774	-1.356695497001071	0.7437566010926578	-0.2054873551074905	1.086462071317894	-1.244713689200334	-1.244713689200339	0.09630649182144094	0.1660224057048525	-0.4730324123781816	0.5603682745315329	-5.469009836463196e-07	-4.753850622692763e-07	2.651055605117139e-06	1.290640531380049e-07	-6.179362594419197e-07	2.614604512658974e-08	-4.484786902654286e-07
0.51	-0.3504611607015188	-0.04250434213315087	0.7554978129645158	1.123912899118345	-0.4389078493777456	-0.2167403942126299	-0.2553169020874526	0.8186523628280111	0.8186523628280099	-0.1302152726411389	-0.1595968738400263	0.1053317642032537	-0.03644546712914423	-0.7692498027332486	-0.2132911810145263	-0.5313363891075452	2.459357156280367	-0.1999965478089556	0.7441377506509788	-0.106105358736257	1.954881289217215	1.954881289217222	0.1185352001062085	-0.08491493978494297	0.4353999011567811	-0.007790307667980867	-0.1759843731377488	0.01479202345824794	-0.01093311834157629	-0.2199113387272091	0.06665697405028358	0.04966311567325724	0.1724083232526188	-11.54312492258992	-22.75473279754025	6.955155913226578	-6.66257933735232	-526.2543370385258	-67.35378179153599	-24.63345152884214	0.8813051414196269	0.6235509555047504	-0.3819468775788329	-1.606836021772351	0.7134431507854511	-0.2002263445707972	1.038189261283702	-1.419841527967106	-1.419841527968828	-0.03673147707768541	0.1858168926054164	-0.5300333174079329	0.4996459408941114	-5.08358275031382e-07	-3.91324800624336e-07	2.538570346002457e-06	1.33017430484204e-07	-5.67285311890694e-07	9.138327148488692e-08	-4.223373506381061e-07
0.52	-0.3581088669686209	-0.04460589592627225	0.750166468501519	1.148423343771564	-0.4408714470903113	-0.2093109219271212	-0.2563260963572624	0.8381277041041427	0.8381277041041658	-0.1290300205306204	-0.1604366485707536	0.109658767123222	-0.03649772217743474	-0.7601810480241555	-0.2069982505902474	-0.5348178309711139	2.442384686347506	-0.1927111730304826	0.7416694538405216	-0.09577622984304922	1.939916340416768	1.939916340416763	0.1184909317982614	-0.08302360236792458	0.4299284383110237	-0.002676099172141131	-0.1813812124054212	0.01535487519655077	-0.01104089854298989	-0.2227934274209945	0.06649630532594809	0.05009372367514033	0.1765336402969157	-11.80038604664005	-22.88821262962507	6.966740939434746	-6.714347210524917	-529.9455492422943	-67.12673495043936	-23.73166965136951	0.9250214803140633	0.6343271910560371	-0.314708476839385	-1.773794248451098	0.7557322257953883	-0.3131265542179509	1.035180530579498	-1.568784005200102	-1.568784005200084	0.06740726778123543	0.1898184330567005	-0.5597042576047321	0.5400501884772503	-4.937463257216837e-07	-3.462871343569409e-07	2.526295478758158e-06	1.395211289064966e-07	-5.411758087377515e-07	1.52860541039264e-07	-4.164593516840053e-07
0.53	-0.3656627236980389	-0.04664399219217419	0.7448037254615494	1.172754053981669	-0.4427618568582229	-0.2019088437071412	-0.2572333234907568	0.8574455955126119	0.8574455955126249	-0.1278456686386241	-0.1612570080132927	0.1139289782509416	-0.03649925951450665	-0.7504838206770579	-0.2006106553165848	-0.5376149004366018	2.423431289693345	-0.1853605131753573	0.7386422886470675	-0.08572640699935774	1.923411485837899	1.923411485837905	0.1183791188415198	-0.08104317015844188	0.424045826443945	0.002354191310837748	-0.1867953522049488	0.01587456832721344	-0.01108192556503868	-0.2254000677958624	0.06587504933592836	0.05041606837449546	0.1806073051226608	-12.20421658352129	-22.94313096557162	6.959083717664028	-6.546035657053843	-533.5475132991968	-66.81454124514794	-22.83236587907425	1.007982977171818	0.6425563739999172	-0.244930185814468	-2.005094538435153	0.725987061235859	-0.3134471865190807	0.9813016397383993	-1.728821825710533	-1.728821825709063	-0.05049193703101967	0.2034335582390488	-0.6127254012235972	0.4821101885860769	-4.785399529834118e-07	-2.728619338804681e-07	2.533580589003468e-06	1.570222325470209e-07	-5.200229534846642e-07	2.159444905943511e-07	-4.074866146655505e-07
0.54	-0.3731164262309336	-0.0486178963696438	0.7394164669260425	1.196885433792325	-0.4445785091884106	-0.1945402242760175	-0.2580417687001194	0.8765909412469957	0.8765909412469994	-0.1266624381481196	-0.1620573075450701	0.1181383261099975	-0.03645097560467319	-0.740150208719391	-0.1941598329037797	-0.5397209300785303	2.402518606457721	-0.1779596854856415	0.7349776960692159	-0.07601984501668868	1.905407205599818	1.905407205599834	0.1182666514996117	-0.07901162021515865	0.4177557845783001	0.007288150208931657	-0.1922094920044745	0.0163942614578766	-0.0111229525870678	-0.2280067081707317	0.06525379334590831	0.05073841307385074	0.1846809699484076	-12.61212031818727	-22.9980379145029	6.95222791616117	-6.406340508916004	-537.2397002491325	-66.56004101226752	-21.93739225153598	1.052298402427925	0.6469726188845355	-0.1765005121275293	-2.165651564743691	0.7657657927134858	-0.4406120310974252	0.9665283583750159	-1.868669137042543	-1.868669137042532	0.06727639074793593	0.2000419798168083	-0.6411902573179329	0.5207838715002566	-4.626759202816117e-07	-1.68029248747143e-07	2.562506525407494e-06	1.866906781311209e-07	-5.043540490995021e-07	2.808060435544791e-07	-3.95089912129087e-07
0.55	-0.3804638261916553	-0.05052704500846534	0.7340116220638381	1.220798204868449	-0.4463208780500316	-0.1872110216007162	-0.2587548895513468	0.8955488511525135	0.8955488511525037	-0.1254804806550709	-0.1628367550339977	0.1222828081970669	-0.0363537790152098	-0.7292309624028639	-0.1876650904760367	-0.5411295196152965	2.379718265759383	-0.170511559347505	0.7307642050897365	-0.06667726182547523	1.885933266149237	1.885933266149246	0.1181152836755105	-0.07687159192351616	0.411078317461999	0.01213063625900656	-0.197416998422157	0.01682684868569697	-0.01111579037543261	-0.2307664710374474	0.0648682854628041	0.05078640824810436	0.1885555644040655	-12.94757384590527	-22.93894717375802	6.918591413728794	-6.225773846806648	-540.8636697457696	-66.1107414601548	-21.0510969070847	1.126498684974757	0.6514862870901088	-0.1053589238671668	-2.384899253745136	0.7343951989159417	-0.4268389397020715	0.9071828099948155	-2.022905086629385	-2.022905086630346	-0.05771877472504885	0.2224462719475244	-0.6903518055354887	0.4626178500954836	-4.43258579940901e-07	-7.82860740068366e-08	2.563343537671155e-06	2.095918010447278e-07	-4.841446168153843e-07	3.407707666695217e-07	-3.811510754078228e-07
